<svg xmlns="http://www.w3.org/2000/svg" width="30" height="30" viewBox="0 0 30 30">
    <g fill="#010101" fill-rule="nonzero" opacity=".56">
        <path d="M15 29.74C6.848 29.74.228 23.12.228 14.966.228 6.815 6.848.163 15 .163c8.152 0 14.772 6.62 14.772 14.772 0 8.152-6.62 14.804-14.772 14.804zM15 .782C7.207.783.848 7.14.848 14.935c0 7.793 6.359 14.152 14.152 14.152 7.793 0 14.152-6.359 14.152-14.152C29.152 7.14 22.793.783 15 .783z"/>
        <path d="M18.75 20.87c-2.054-.066-4.402-2.022-6.033-3.653-1.63-1.63-3.587-4.01-3.652-6-.032-.75 1.728-1.989 1.728-2.021.49-.326 1.011-.196 1.207.097.13.196 1.435 2.185 1.598 2.38.163.262.13.62-.065.98-.098.195-.424.75-.587 1.043.195.26.62.847 1.532 1.728.88.88 1.468 1.337 1.729 1.533.293-.164.847-.49 1.043-.587.359-.196.717-.196.978-.066.229.13 2.218 1.468 2.38 1.598.294.228.425.75.099 1.207 0 .032-1.24 1.76-1.957 1.76zM11.413 9.652c-.065 0-.13.033-.228.098-.522.359-1.435 1.207-1.468 1.467.066 1.794 1.924 4.044 3.457 5.576 1.533 1.533 3.783 3.392 5.576 3.457.26-.033 1.109-.946 1.467-1.467.13-.163.098-.294.066-.326-.163-.098-2.12-1.435-2.348-1.566-.033 0-.163-.032-.359.066-.228.13-1.174.652-1.174.652l-.163.098-.196-.098c-.032-.033-.717-.424-2.021-1.729-1.305-1.304-1.696-1.989-1.729-2.021l-.097-.163.097-.163s.555-.946.653-1.174c.097-.196.097-.326.065-.326a73.357 73.357 0 0 0-1.565-2.348c.032-.033 0-.033-.033-.033z"/>
    </g>
</svg>
